<?xml version="1.0" standalone="no"?>
<!DOCTYPE svg PUBLIC "-//W3C//DTD SVG 20010904//EN"
 "http://www.w3.org/TR/2001/REC-SVG-20010904/DTD/svg10.dtd">
<svg version="1.0" xmlns="http://www.w3.org/2000/svg"
 width="1920.000000pt" height="1920.000000pt" viewBox="0 0 1920.000000 1920.000000"
 preserveAspectRatio="xMidYMid meet">
<metadata>
Created by potrace 1.14, written by Peter Selinger 2001-2017
</metadata>
<g transform="translate(0.000000,1920.000000) scale(0.100000,-0.100000)"
fill="#000000" stroke="none">
<path d="M18726 13503 c-1 -1 -186 -4 -411 -7 -226 -4 -592 -9 -815 -12 -223
-4 -457 -7 -520 -8 l-115 -1 -542 -542 -541 -543 1173 0 1173 0 0 -1142 c1
-629 1 -1151 1 -1162 1 -12 186 167 536 517 l535 535 -2 1183 -3 1184 -233 0
c-129 0 -234 -1 -236 -2z"/>
<path d="M4677 11794 c-1 -1 -99 -4 -217 -8 -118 -4 -242 -8 -275 -10 -33 -2
-114 -7 -180 -10 -66 -4 -145 -9 -175 -11 -90 -8 -170 -14 -255 -20 -44 -4
-96 -8 -115 -10 -19 -2 -66 -7 -105 -10 -38 -4 -81 -8 -95 -10 -14 -2 -59 -7
-100 -10 -41 -3 -86 -8 -100 -10 -14 -2 -50 -7 -80 -10 -50 -5 -83 -9 -160
-20 -14 -2 -50 -7 -80 -10 -30 -3 -82 -10 -115 -15 -33 -5 -82 -12 -110 -16
-27 -3 -57 -7 -65 -9 -32 -6 -96 -16 -125 -19 -30 -4 -141 -22 -180 -30 -22
-4 -70 -12 -125 -21 -74 -13 -233 -45 -236 -48 -3 -3 15 -97 71 -352 86 -400
98 -455 115 -541 7 -34 15 -66 19 -71 3 -6 40 -13 81 -16 92 -8 111 -13 175
-42 142 -64 215 -213 300 -613 50 -232 114 -476 217 -827 97 -330 250 -821
279 -895 89 -224 265 -463 468 -633 228 -192 477 -318 846 -431 60 -18 278
-62 350 -71 28 -4 57 -8 65 -10 8 -2 49 -7 90 -10 41 -4 95 -8 120 -10 266
-24 886 -24 1100 0 19 2 62 7 95 10 54 5 119 14 240 31 22 3 70 12 107 20 37
7 82 16 100 19 131 23 412 111 548 173 227 102 402 207 635 382 135 102 250
233 414 475 81 119 261 411 261 422 0 3 15 31 34 62 44 73 232 442 281 551 21
47 51 114 68 150 63 138 139 337 188 492 79 249 122 331 223 429 162 157 420
153 584 -9 90 -89 142 -192 207 -407 28 -90 105 -304 130 -360 8 -16 25 -58
40 -93 51 -125 218 -470 308 -637 308 -573 559 -918 792 -1090 354 -262 681
-422 1050 -514 103 -25 231 -52 273 -57 18 -1 41 -5 50 -8 9 -3 42 -8 72 -11
30 -3 62 -8 70 -10 8 -2 51 -7 95 -10 44 -4 98 -9 120 -11 207 -23 903 -22
1100 1 22 3 63 7 90 9 208 18 480 77 695 151 113 39 348 149 418 196 24 16 45
29 48 29 5 0 66 42 74 51 3 3 32 25 65 49 76 55 248 227 306 305 24 33 47 62
50 65 11 9 96 154 126 215 51 102 63 137 240 715 46 151 86 284 88 295 3 11
18 65 34 120 33 112 119 430 125 461 2 11 11 49 20 85 9 35 18 75 21 89 77
406 154 578 297 658 48 27 152 52 220 52 46 0 47 1 57 38 6 20 12 51 15 67 3
17 14 71 25 120 11 50 41 187 66 305 26 118 55 256 66 305 34 157 36 142 -19
153 -53 12 -199 39 -252 47 -19 3 -57 10 -85 15 -27 5 -66 12 -85 14 -19 3
-62 10 -95 15 -33 5 -80 13 -105 16 -25 3 -56 8 -70 10 -58 8 -117 17 -140 20
-14 3 -50 7 -80 10 -30 3 -64 7 -75 9 -11 2 -49 7 -85 11 -36 5 -72 9 -80 10
-8 1 -46 5 -85 9 -38 4 -81 9 -95 11 -29 4 -121 13 -200 20 -30 3 -79 7 -107
10 -99 9 -158 14 -243 21 -47 3 -107 7 -135 9 -27 2 -99 7 -160 10 -60 3 -141
8 -180 10 -399 24 -1384 24 -1620 0 -22 -2 -89 -7 -150 -10 -60 -3 -126 -8
-145 -10 -19 -1 -71 -6 -115 -9 -44 -4 -100 -9 -125 -11 -81 -9 -134 -14 -195
-20 -33 -4 -71 -8 -85 -10 -14 -2 -50 -7 -80 -10 -30 -3 -66 -8 -80 -10 -14
-2 -45 -7 -70 -10 -25 -3 -56 -8 -70 -10 -14 -2 -44 -7 -67 -10 -82 -11 -98
-14 -118 -18 -11 -3 -40 -8 -65 -11 -25 -3 -54 -8 -65 -10 -11 -2 -46 -7 -79
-11 -32 -3 -68 -8 -80 -10 -20 -4 -32 -5 -141 -21 -27 -3 -59 -8 -70 -10 -11
-3 -38 -7 -60 -9 -22 -3 -65 -10 -95 -15 -30 -5 -71 -12 -90 -15 -19 -3 -61
-10 -92 -16 -32 -5 -70 -12 -85 -15 -16 -2 -44 -7 -63 -10 -19 -3 -37 -6 -40
-7 -3 0 -21 -4 -40 -9 -19 -4 -51 -11 -70 -14 -84 -13 -335 -78 -445 -114
-180 -59 -391 -113 -515 -134 -14 -2 -41 -7 -60 -10 -77 -13 -97 -16 -150 -22
-30 -3 -58 -8 -62 -11 -9 -5 -141 -4 -178 1 -14 2 -45 7 -70 11 -181 26 -361
61 -466 91 -28 8 -60 16 -70 19 -11 2 -75 22 -145 44 -152 49 -318 93 -459
121 -58 11 -116 23 -130 25 -40 9 -195 36 -282 50 -18 3 -58 10 -88 15 -110
18 -231 36 -305 45 -27 3 -61 8 -75 10 -14 3 -41 7 -60 10 -81 10 -121 16
-240 36 -69 11 -138 22 -155 24 -16 3 -50 7 -75 10 -25 3 -61 8 -80 11 -72 10
-96 13 -155 19 -33 3 -71 8 -85 10 -14 2 -56 7 -95 10 -38 4 -81 8 -95 10 -14
2 -70 7 -125 11 -55 3 -108 8 -117 9 -9 2 -76 7 -150 11 -73 4 -151 8 -173 9
-187 13 -1086 28 -1098 19z m1488 -427 c44 -3 112 -8 150 -11 39 -3 104 -8
145 -11 41 -3 86 -7 100 -10 14 -2 52 -6 85 -10 33 -3 71 -8 85 -10 39 -6 150
-24 195 -31 87 -13 317 -66 450 -104 588 -167 893 -398 956 -724 30 -158 33
-554 5 -746 -2 -8 -6 -35 -10 -60 -4 -25 -10 -58 -12 -75 -4 -25 -27 -135 -39
-185 -71 -305 -212 -638 -394 -925 -69 -110 -217 -315 -270 -375 -13 -14 -44
-49 -69 -79 -121 -138 -314 -287 -479 -370 -123 -61 -382 -158 -470 -175 -10
-2 -45 -11 -78 -19 -73 -19 -255 -55 -310 -62 -22 -2 -50 -7 -62 -9 -12 -3
-49 -7 -82 -11 -33 -3 -68 -7 -78 -9 -10 -2 -49 -7 -88 -11 -38 -4 -82 -8 -97
-10 -190 -24 -710 -23 -830 1 -13 2 -45 6 -73 9 -84 9 -253 44 -390 81 -283
78 -485 180 -668 337 -72 62 -81 71 -146 142 -152 168 -312 467 -386 720 -9
33 -21 71 -26 85 -23 66 -79 337 -94 460 -4 30 -9 62 -10 70 -1 8 -6 49 -10
90 -4 41 -9 83 -11 92 -14 77 -20 514 -9 653 25 308 54 483 105 637 31 93 87
199 136 257 77 91 261 191 419 227 6 1 42 10 80 19 39 9 77 18 85 20 8 2 71
15 140 29 114 23 253 45 385 61 28 3 64 8 80 10 17 3 66 7 110 10 44 3 105 8
135 10 30 3 111 8 180 11 69 3 126 7 127 8 5 4 958 -3 1038 -7z m7990 -1 c22
-2 90 -7 152 -10 61 -4 120 -8 130 -10 10 -2 53 -7 95 -10 42 -4 85 -8 95 -10
17 -3 89 -13 143 -20 56 -7 118 -17 170 -27 48 -10 309 -66 335 -73 6 -2 28
-6 50 -11 22 -4 45 -11 50 -15 6 -4 23 -10 39 -14 41 -10 169 -72 219 -106
100 -68 190 -200 238 -350 17 -52 33 -104 35 -115 2 -11 6 -31 9 -45 9 -44 15
-73 20 -115 3 -22 8 -51 10 -65 7 -42 23 -186 30 -282 7 -75 7 -486 1 -528 -3
-19 -8 -76 -11 -126 -3 -49 -7 -101 -9 -115 -3 -13 -7 -50 -11 -83 -4 -32 -8
-68 -10 -80 -2 -11 -9 -50 -15 -86 -5 -36 -12 -74 -14 -85 -2 -11 -12 -56 -21
-100 -50 -244 -159 -533 -276 -731 -122 -207 -279 -374 -472 -502 -403 -268
-1067 -385 -1802 -318 -107 10 -175 17 -192 20 -10 2 -45 7 -78 10 -77 9 -126
16 -145 21 -8 2 -35 7 -60 11 -25 3 -49 7 -55 8 -5 2 -28 6 -50 10 -330 63
-664 188 -865 324 -269 182 -565 544 -785 957 -121 228 -255 614 -290 835 -3
19 -10 58 -15 85 -40 205 -47 589 -15 817 9 67 43 158 84 228 119 200 367 358
759 485 110 35 354 100 407 108 17 3 50 10 75 15 42 10 75 15 160 28 19 3 60
9 90 14 30 5 80 12 110 15 30 3 71 8 90 10 103 12 251 23 425 31 77 3 141 7
143 8 4 5 981 -3 1027 -8z"/>
<path d="M533 8595 l-533 -533 0 -1185 0 -1186 267 4 c148 3 432 7 633 10 201
2 547 8 770 11 223 3 463 6 534 7 l129 2 540 540 540 540 -1170 3 -1171 2 0
1155 c0 636 -1 1157 -3 1159 -2 2 -244 -236 -536 -529z"/>
</g>
</svg>
