<svg id="Capa_2" data-name="Capa 2" xmlns="http://www.w3.org/2000/svg" viewBox="0 0 1920 781.4"><defs><style>.cls-1{fill:#eb5c33;}</style></defs><polygon class="cls-1" points="0 781.39 0 544.74 107.16 437.58 107.16 669.77 341.58 669.77 233.3 778.05 0 781.39"/><polygon class="cls-1" points="1920 0 1920 236.65 1812.84 343.81 1812.84 111.63 1578.42 111.63 1686.7 3.35 1920 0"/><path class="cls-1" d="M1190.2,338.39s-104.18,12.9-146.85,27.78S956,384.55,956,384.55s-44.65-3.5-87.32-18.38-146.85-27.78-146.85-27.78c-267.91-46.64-543.75,12.9-543.75,12.9L199,448.53c34.72,1,44.65,11.9,55.56,65.49s44.65,157.76,44.65,157.76,24.81,121.06,203.41,132S738.73,770,781.4,739.26,891.53,574.54,906.42,520,956,470.36,956,470.36s34.73-5,49.61,49.61,82.36,188.53,125,219.29,100.21,75.41,278.82,64.49,203.41-132,203.41-132S1646.64,567.6,1657.55,514s20.84-64.5,55.57-65.49L1734,351.29S1458.11,291.75,1190.2,338.39ZM784.37,659.81c-18.58,27.85-41.78,56.56-71.5,72.91-41.57,22.89-94.43,30.74-141.21,34.57-49.2,4-100.2.29-146.42-18.09a149.83,149.83,0,0,1-70-57.53c-22.61-35.06-33.34-76.88-38.16-117.93-3.59-30.66-4.81-61.65-1.73-92.41,2.07-20.61,4.73-47.09,15.58-67.14,4.49-8.29,10.36-15.46,18.15-20.69,16.23-10.83,36-14.6,54.74-18.65,53.3-11.55,108.94-12.94,163.27-12.71,60.75.25,123.74,4.2,181.93,23.07,36.59,11.89,80,31,85.07,73.92C842.4,529.44,823.57,601.13,784.37,659.81ZM1595,573.74c-4.82,41-15.55,82.87-38.16,117.93a149.78,149.78,0,0,1-70,57.53c-46.22,18.38-97.22,22.08-146.42,18.09-46.78-3.83-99.64-11.68-141.21-34.57-29.72-16.35-52.92-45.06-71.5-72.91-39.19-58.68-58-130.37-49.7-200.68,5.09-42.93,48.48-62,85.07-73.92,58.19-18.87,121.18-22.82,181.93-23.07,54.33-.23,110,1.16,163.27,12.71,18.75,4,38.51,7.82,54.74,18.65,7.79,5.23,13.66,12.4,18.15,20.69,10.85,20.05,13.52,46.53,15.58,67.14C1599.81,512.09,1598.59,543.08,1595,573.74Z" transform="translate(0 -149.3)"/></svg>